<svg data-v-fde0c5aa="" xmlns="http://www.w3.org/2000/svg" viewBox="0 0 300 300" class="iconLeft"><!----><defs data-v-fde0c5aa=""><!----></defs><rect data-v-fde0c5aa="" fill="transparent" x="0" y="0" width="300px" height="300px" class="logo-background-square"></rect><defs data-v-fde0c5aa=""><!----></defs><g data-v-fde0c5aa="" id="b69cfeac-d623-48f9-9499-879fb72c23fd" fill="#000000" transform="matrix(2.913489344029646,0,0,2.913489344029646,125.57160830713484,126.09482015451836)"><path d="M9.42 13.43L11.77 3.63L10.49 3.63L8.95 10.21C8.79 10.86 8.71 11.52 8.68 11.97C8.64 11.52 8.50 10.86 8.34 10.22L6.64 3.63L5.38 3.63L3.65 10.22C3.49 10.86 3.36 11.52 3.33 11.97C3.30 11.52 3.21 10.86 3.07 10.21L1.53 3.63L0.24 3.63L2.59 13.43L3.93 13.43L6.01 5.25L8.08 13.43ZM15.23 6.61C13.29 6.61 12.12 7.74 12.12 9.95C12.12 12.33 13.54 13.57 15.78 13.57C16.53 13.57 17.36 13.44 17.99 13.19L17.99 12.15C17.21 12.40 16.34 12.52 15.75 12.52C14.34 12.52 13.51 11.84 13.36 10.40L18.10 10.40L18.10 9.83C18.10 7.71 17.07 6.61 15.23 6.61ZM15.22 7.56C16.31 7.56 16.86 8.40 16.86 9.53L13.34 9.53C13.45 8.18 14.18 7.56 15.22 7.56ZM19.57 2.84L19.57 13.01L19.59 13.01L19.59 13.15C20.30 13.43 21.41 13.57 22.19 13.57C24.46 13.57 25.68 12.24 25.68 9.76C25.68 7.48 24.60 6.61 23.16 6.61C22.09 6.61 21.32 7.08 20.85 8.19L20.85 2.84ZM22.88 7.66C23.80 7.66 24.40 8.25 24.40 9.83C24.40 11.68 23.59 12.59 22.15 12.59C21.74 12.59 21.31 12.54 20.85 12.45C20.87 8.37 21.91 7.66 22.88 7.66ZM28.57 13.43L28.57 9.14L31.89 9.14L31.89 8.05L28.57 8.05L28.57 4.70L32.59 4.70L32.59 3.63L27.30 3.63L27.30 13.43ZM33.78 2.93L33.78 11.56C33.78 12.85 34.26 13.47 35.60 13.47C35.76 13.47 35.90 13.45 36.05 13.44L36.05 12.43C35.91 12.46 35.81 12.46 35.69 12.46C35.21 12.46 35.06 12.14 35.06 11.54L35.06 2.93ZM37.17 3.72L37.17 5.10L38.44 5.10L38.44 3.72ZM37.17 6.75L37.17 11.56C37.17 12.85 37.65 13.47 38.99 13.47C39.14 13.47 39.28 13.45 39.44 13.44L39.44 12.43C39.30 12.46 39.20 12.46 39.07 12.46C38.60 12.46 38.44 12.14 38.44 11.54L38.44 6.75ZM41.12 13.43L42.95 10.63L44.79 13.43L46.14 13.43L43.82 9.97L45.99 6.75L44.67 6.75L42.95 9.37L41.22 6.75L39.93 6.75L42.07 9.97L39.76 13.43Z"></path></g><defs data-v-fde0c5aa=""><linearGradient data-v-fde0c5aa="" gradientTransform="rotate(25)" id="833c2b58-a859-4f32-bdcf-336c255351b2" x1="0%" y1="0%" x2="100%" y2="0%"><stop data-v-fde0c5aa="" offset="0%" stop-color="#000A68" stop-opacity="1"></stop><stop data-v-fde0c5aa="" offset="100%" stop-color="#00C4EE" stop-opacity="1"></stop></linearGradient></defs><g data-v-fde0c5aa="" id="a65fd822-2308-45e0-bc0f-b2c69295ec73" stroke="none" fill="url(#833c2b58-a859-4f32-bdcf-336c255351b2)" transform="matrix(0.7327084577748715,0,0,0.7327084577748715,40.05715126634471,113.35175476914658)"><path d="M78.096 31.523v37.046h21.533V31.523H78.174zM.122 31.475H.044v37.046h22.192V31.475h-7.373zM38.54 31.523H25.137v37.046h50.39V31.523H38.54zm25.835 20.035l-23.94 12.109c-1.265.645-2.3.264-2.3-.84V37.969c0-1.104 1.035-1.484 2.3-.845l23.94 12.114c1.27.64 1.27 1.685 0 2.32zM99.922 20.586v-2.568H-.068l.039 2.539h1.895v5.503h-.137v.01l-1.519.004v-.014H.049l.044 2.891H99.922V26.07h-5.4v-5.488l5.4.004zm-85.703 5.483H5.874l.005-5.488 8.34.005v5.483zm4.135 0l.005-5.488 8.335.01.005 5.479h-8.345zm12.476-.005v-5.479h8.34l.01 5.483-8.35-.004zm22.1.01h-9.615l-.005-5.488h9.629l-.009 5.488zm12.48 0l-8.33-.005-.01-5.483 8.35-.005-.01 5.493zm4.151 0v-5.488l8.33.005v5.479l-8.33.004zm20.82-.005h-8.34v-5.488l8.34.005v5.483zM99.902 73.657v-2.578H-.078l.034 2.539h1.895v5.508h-.137v.01H.195v-.01H.034l.044 2.891H99.902v-2.881h-5.4l.01-5.488 5.39.009zm-85.698 5.479H5.859l.005-5.488h8.34v5.488zm4.136 0l.005-5.488 8.335.01.005 5.479H18.34zm12.475 0v-5.488h8.34l.01 5.488h-8.35zm22.1 0H43.3l-.005-5.488h9.629l-.009 5.488zm12.485 0h-8.34v-5.488h8.34v5.488zm4.151 0v-5.488l8.32.01.01 5.479h-8.33zm20.82 0h-8.35l.01-5.488h8.34v5.488z"></path></g><!----></svg>